<mxfile host="app.diagrams.net" modified="2023-02-06T06:39:48.601Z" agent="5.0 (Macintosh; Intel Mac OS X 10_15_7) AppleWebKit/537.36 (KHTML, like Gecko) Chrome/109.0.0.0 Safari/537.36" etag="9vz6TUePuXDRm5Q450YT" version="20.8.16" type="github">
  <diagram name="第 1 页" id="Ej6Xu8YYIHDuc56v-rKU">
    <mxGraphModel dx="824" dy="618" grid="1" gridSize="10" guides="1" tooltips="1" connect="1" arrows="1" fold="1" page="1" pageScale="1" pageWidth="827" pageHeight="1169" math="0" shadow="0">
      <root>
        <mxCell id="0" />
        <mxCell id="1" parent="0" />
        <mxCell id="QLVLLkYk1Rk1FqDWxppT-1" value="tiptap迁移前端工程 vue package" style="rounded=1;whiteSpace=wrap;html=1;fillColor=#bac8d3;strokeColor=#23445d;verticalAlign=bottom;arcSize=4;" parent="1" vertex="1">
          <mxGeometry x="170" y="270" width="490" height="265" as="geometry" />
        </mxCell>
        <mxCell id="QLVLLkYk1Rk1FqDWxppT-2" style="edgeStyle=orthogonalEdgeStyle;rounded=0;orthogonalLoop=1;jettySize=auto;html=1;exitX=0.5;exitY=1;exitDx=0;exitDy=0;" parent="1" source="QLVLLkYk1Rk1FqDWxppT-3" target="QLVLLkYk1Rk1FqDWxppT-6" edge="1">
          <mxGeometry relative="1" as="geometry" />
        </mxCell>
        <mxCell id="QLVLLkYk1Rk1FqDWxppT-3" value="动态资源渲染" style="rounded=1;whiteSpace=wrap;html=1;fillColor=#dae8fc;strokeColor=#6c8ebf;verticalAlign=top;" parent="1" vertex="1">
          <mxGeometry x="230" y="290" width="120" height="90" as="geometry" />
        </mxCell>
        <mxCell id="QLVLLkYk1Rk1FqDWxppT-4" value="静态资源渲染" style="rounded=1;whiteSpace=wrap;html=1;fillColor=#dae8fc;strokeColor=#6c8ebf;arcSize=7;verticalAlign=top;" parent="1" vertex="1">
          <mxGeometry x="370" y="290" width="120" height="220" as="geometry" />
        </mxCell>
        <mxCell id="QLVLLkYk1Rk1FqDWxppT-5" value="标题、段落、图形 &lt;br&gt;表格、研报链接&lt;br&gt;... ..." style="rounded=1;whiteSpace=wrap;html=1;fillColor=#fad7ac;strokeColor=#b46504;arcSize=11;" parent="1" vertex="1">
          <mxGeometry x="380" y="360" width="120" height="70" as="geometry" />
        </mxCell>
        <mxCell id="QLVLLkYk1Rk1FqDWxppT-6" value="动态指标数据API" style="rounded=1;whiteSpace=wrap;html=1;fillColor=#bac8d3;strokeColor=#23445d;verticalAlign=bottom;arcSize=4;" parent="1" vertex="1">
          <mxGeometry x="200" y="550" width="140" height="60" as="geometry" />
        </mxCell>
        <mxCell id="QLVLLkYk1Rk1FqDWxppT-7" value="静态资源API" style="rounded=1;whiteSpace=wrap;html=1;fillColor=#bac8d3;strokeColor=#23445d;verticalAlign=bottom;arcSize=4;" parent="1" vertex="1">
          <mxGeometry x="380" y="550" width="210" height="60" as="geometry" />
        </mxCell>
        <mxCell id="QLVLLkYk1Rk1FqDWxppT-8" value="指标、图表&lt;br&gt;静态化数据" style="rounded=1;whiteSpace=wrap;html=1;fillColor=#fad7ac;strokeColor=#b46504;" parent="1" vertex="1">
          <mxGeometry x="380" y="320" width="120" height="30" as="geometry" />
        </mxCell>
        <mxCell id="QLVLLkYk1Rk1FqDWxppT-9" value="" style="endArrow=classic;html=1;rounded=0;exitX=0.5;exitY=1;exitDx=0;exitDy=0;entryX=0.364;entryY=-0.017;entryDx=0;entryDy=0;entryPerimeter=0;" parent="1" source="QLVLLkYk1Rk1FqDWxppT-4" target="QLVLLkYk1Rk1FqDWxppT-7" edge="1">
          <mxGeometry width="50" height="50" relative="1" as="geometry">
            <mxPoint x="380" y="320" as="sourcePoint" />
            <mxPoint x="430" y="270" as="targetPoint" />
          </mxGeometry>
        </mxCell>
        <mxCell id="1Zusz6Eb5MTFPOyElNCq-1" value="指标、图表&lt;br&gt;动态化数据" style="rounded=1;whiteSpace=wrap;html=1;fillColor=#fad7ac;strokeColor=#b46504;" vertex="1" parent="1">
          <mxGeometry x="240" y="330" width="120" height="30" as="geometry" />
        </mxCell>
        <mxCell id="1Zusz6Eb5MTFPOyElNCq-4" value="动态内容" style="rounded=1;whiteSpace=wrap;html=1;fillColor=#dae8fc;strokeColor=#6c8ebf;arcSize=7;verticalAlign=top;" vertex="1" parent="1">
          <mxGeometry x="510" y="290" width="120" height="220" as="geometry" />
        </mxCell>
        <mxCell id="1Zusz6Eb5MTFPOyElNCq-3" value="修订、批注内容" style="rounded=1;whiteSpace=wrap;html=1;fillColor=#fad7ac;strokeColor=#b46504;arcSize=11;" vertex="1" parent="1">
          <mxGeometry x="530" y="320" width="120" height="30" as="geometry" />
        </mxCell>
        <mxCell id="1Zusz6Eb5MTFPOyElNCq-5" value="免责声明信息" style="rounded=1;whiteSpace=wrap;html=1;fillColor=#fad7ac;strokeColor=#b46504;arcSize=11;" vertex="1" parent="1">
          <mxGeometry x="530" y="360" width="120" height="30" as="geometry" />
        </mxCell>
        <mxCell id="1Zusz6Eb5MTFPOyElNCq-6" value="" style="endArrow=classic;html=1;rounded=0;entryX=0.75;entryY=0;entryDx=0;entryDy=0;exitX=0.442;exitY=1;exitDx=0;exitDy=0;exitPerimeter=0;" edge="1" parent="1" source="1Zusz6Eb5MTFPOyElNCq-4" target="QLVLLkYk1Rk1FqDWxppT-7">
          <mxGeometry width="50" height="50" relative="1" as="geometry">
            <mxPoint x="390" y="570" as="sourcePoint" />
            <mxPoint x="440" y="520" as="targetPoint" />
          </mxGeometry>
        </mxCell>
        <mxCell id="1Zusz6Eb5MTFPOyElNCq-8" value="图表渲:Echart" style="shape=card;whiteSpace=wrap;html=1;dashed=1;size=20;fillColor=#fff2cc;strokeColor=#d6b656;verticalAlign=top;" vertex="1" parent="1">
          <mxGeometry x="690" y="300" width="100" height="100" as="geometry" />
        </mxCell>
      </root>
    </mxGraphModel>
  </diagram>
</mxfile>
